<svg width="18" height="18" viewBox="0 0 18 18" fill="none" xmlns="http://www.w3.org/2000/svg">
<path d="M14.25 6.75C14.25 7.8375 13.9275 8.83501 13.3725 9.66751C12.5625 10.8675 11.28 11.715 9.7875 11.9325C9.5325 11.9775 9.27 12 9 12C8.73 12 8.4675 11.9775 8.2125 11.9325C6.72 11.715 5.4375 10.8675 4.6275 9.66751C4.0725 8.83501 3.75 7.8375 3.75 6.75C3.75 3.8475 6.0975 1.5 9 1.5C11.9025 1.5 14.25 3.8475 14.25 6.75Z" stroke="#353535" stroke-linecap="round" stroke-linejoin="round"/>
<path d="M15.9376 13.8523L14.7001 14.1448C14.4226 14.2123 14.2051 14.4223 14.1451 14.6998L13.8826 15.8023C13.7401 16.4023 12.9751 16.5823 12.5776 16.1098L9.00006 11.9998L5.42256 16.1173C5.02506 16.5898 4.26006 16.4098 4.11756 15.8098L3.85506 14.7073C3.78756 14.4298 3.57006 14.2123 3.30006 14.1523L2.06256 13.8598C1.49256 13.7248 1.29006 13.0123 1.70256 12.5998L4.62756 9.6748C5.43756 10.8748 6.72006 11.7223 8.21256 11.9398C8.46756 11.9848 8.73006 12.0073 9.00006 12.0073C9.27006 12.0073 9.53256 11.9848 9.78756 11.9398C11.2801 11.7223 12.5626 10.8748 13.3726 9.6748L16.2976 12.5998C16.7101 13.0048 16.5076 13.7173 15.9376 13.8523Z" stroke="#353535" stroke-linecap="round" stroke-linejoin="round"/>
<path d="M9.43498 4.485L9.87748 5.36999C9.93748 5.48999 10.095 5.61 10.2375 5.6325L11.04 5.76749C11.55 5.84999 11.67 6.225 11.3025 6.5925L10.68 7.21499C10.575 7.31999 10.515 7.5225 10.5525 7.6725L10.7325 8.445C10.875 9.0525 10.5525 9.29249 10.0125 8.96999L9.26248 8.52749C9.12748 8.44499 8.90248 8.44499 8.76748 8.52749L8.01748 8.96999C7.47748 9.28499 7.15498 9.0525 7.29748 8.445L7.47748 7.6725C7.50748 7.53 7.45498 7.31999 7.34998 7.21499L6.72748 6.5925C6.35998 6.225 6.47998 5.85749 6.98998 5.76749L7.79248 5.6325C7.92748 5.61 8.08498 5.48999 8.14498 5.36999L8.58748 4.485C8.80498 4.005 9.19498 4.005 9.43498 4.485Z" stroke="#353535" stroke-linecap="round" stroke-linejoin="round"/>
</svg>
