<svg width="79" height="24" viewBox="0 0 79 24" fill="none" xmlns="http://www.w3.org/2000/svg">
<g clip-path="url(#clip0_16539_147)">
<path d="M6.37528 17.0586C6.29906 17.0381 6.21781 17.0486 6.14939 17.088C6.08098 17.1274 6.03101 17.1924 6.01048 17.2686C5.98996 17.3448 6.00055 17.4261 6.03993 17.4945C6.07931 17.5629 6.14426 17.6129 6.22049 17.6334C6.29671 17.6539 6.37796 17.6433 6.44638 17.6039C6.51479 17.5645 6.56476 17.4996 6.58528 17.4234C6.60581 17.3472 6.59522 17.2659 6.55584 17.1975C6.51645 17.1291 6.45151 17.0791 6.37528 17.0586ZM14.4213 19.2225C14.3835 19.2123 14.3442 19.2097 14.3054 19.2147C14.2667 19.2198 14.2293 19.2324 14.1954 19.2519C14.1615 19.2714 14.1318 19.2974 14.108 19.3284C14.0841 19.3594 14.0666 19.3947 14.0565 19.4325C14.0463 19.4702 14.0437 19.5096 14.0487 19.5484C14.0538 19.5871 14.0664 19.6245 14.0859 19.6584C14.1054 19.6922 14.1314 19.7219 14.1624 19.7458C14.1934 19.7696 14.2287 19.7871 14.2665 19.7973C14.3427 19.8178 14.424 19.8072 14.4924 19.7678C14.5608 19.7285 14.6108 19.6635 14.6313 19.5873C14.6518 19.5111 14.6412 19.4298 14.6018 19.3614C14.5625 19.293 14.4975 19.243 14.4213 19.2225Z" fill="black"/>
<path d="M17.5347 17.5693C16.8938 17.1828 16.2708 16.7675 15.6675 16.3246C15.6522 16.3132 15.6388 16.2995 15.6279 16.2838L14.0505 14.0038C13.6444 13.4183 13.044 12.9955 12.3558 12.8104L10.1286 12.2104C8.6817 11.8204 7.4814 12.079 6.0615 12.4555C5.71595 12.549 5.39607 12.7196 5.12589 12.9545C4.8557 13.1893 4.64223 13.4823 4.5015 13.8115V12.2575C4.75802 12.1909 4.98527 12.0413 5.14781 11.832C5.31035 11.6227 5.39903 11.3654 5.4 11.1004C5.4 11.0208 5.36839 10.9445 5.31213 10.8883C5.25587 10.832 5.17956 10.8004 5.1 10.8004C5.02044 10.8004 4.94413 10.832 4.88787 10.8883C4.83161 10.9445 4.8 11.0208 4.8 11.1004C4.8 11.2191 4.76481 11.3351 4.69888 11.4337C4.63295 11.5324 4.53925 11.6093 4.42961 11.6547C4.31997 11.7001 4.19933 11.712 4.08295 11.6889C3.96656 11.6657 3.85965 11.6086 3.77574 11.5247C3.69182 11.4408 3.63468 11.3338 3.61153 11.2175C3.58838 11.1011 3.60026 10.9804 3.64567 10.8708C3.69108 10.7612 3.76799 10.6674 3.86666 10.6015C3.96533 10.5356 4.08133 10.5004 4.2 10.5004C4.27957 10.5004 4.35587 10.4688 4.41213 10.4125C4.46839 10.3563 4.5 10.28 4.5 10.2004V9.3004C4.7387 9.3004 4.96761 9.20558 5.1364 9.0368C5.30518 8.86801 5.4 8.63909 5.4 8.4004V6.5161L6.7023 5.8261C7.05327 5.63921 7.31583 5.32079 7.4324 4.94064C7.54898 4.56048 7.51007 4.14961 7.3242 3.7981C7.23222 3.62408 7.10681 3.46992 6.95516 3.34445C6.80351 3.21897 6.62859 3.12465 6.44043 3.06688C6.25227 3.00911 6.05456 2.98903 5.85862 3.00779C5.66269 3.02655 5.47238 3.08378 5.2986 3.1762L0.1596 5.8972C0.066 5.9539 0.00630001 6.0532 1.10643e-08 6.1624V8.8744C-1.40386e-05 8.92614 0.0133526 8.977 0.0388017 9.02205C0.0642508 9.06709 0.100917 9.10479 0.14524 9.13148C0.189562 9.15817 0.240033 9.17295 0.291752 9.17437C0.34347 9.17579 0.394678 9.16381 0.4404 9.1396L3 7.7857V8.4004C3 8.63909 3.09482 8.86801 3.2636 9.0368C3.43239 9.20558 3.66131 9.3004 3.9 9.3004V9.943C3.64272 10.0085 3.4146 10.1578 3.25167 10.3674C3.08873 10.577 3.00028 10.8349 3.00028 11.1004C3.00028 11.3659 3.08873 11.6238 3.25167 11.8334C3.4146 12.043 3.64272 12.1923 3.9 12.2578V16.0978C3.9 16.108 3.9048 16.1164 3.9057 16.1278C3.91094 16.3868 3.99985 16.6372 4.15915 16.8414C4.31845 17.0457 4.53958 17.193 4.7895 17.2612L4.8108 17.2669C4.79179 17.6077 4.89069 17.9447 5.09086 18.2212C5.29103 18.4977 5.58029 18.6968 5.91 18.7852C6.03717 18.8195 6.16829 18.8369 6.3 18.8371C6.57586 18.8365 6.84613 18.7593 7.08072 18.6142C7.31532 18.4691 7.50502 18.2617 7.6287 18.0151L12.8562 19.4206C12.8379 19.7116 12.9061 20.0016 13.0521 20.254C13.0839 20.305 13.119 20.3539 13.1568 20.4004L3.6 20.3986C3.52044 20.3986 3.44413 20.4302 3.38787 20.4865C3.33161 20.5427 3.3 20.619 3.3 20.6986C3.3 20.7782 3.33161 20.8545 3.38787 20.9107C3.44413 20.967 3.52044 20.9986 3.6 20.9986L14.3463 21.0004C14.6064 20.9977 14.8616 20.9291 15.0879 20.8009C15.3377 20.6571 15.5401 20.4434 15.6702 20.1862L16.2666 20.3464C16.419 20.3876 16.578 20.3983 16.7345 20.3779C16.8911 20.3576 17.0421 20.3065 17.1788 20.2277C17.3156 20.1489 17.4355 20.0439 17.5316 19.9187C17.6277 19.7935 17.6982 19.6505 17.739 19.498L17.9661 18.6532C18.0214 18.4502 18.0092 18.2347 17.9314 18.0392C17.8536 17.8437 17.7144 17.6788 17.5347 17.5693ZM0.6 8.3764V6.343L5.58 3.7063C5.6842 3.65076 5.79836 3.61639 5.91589 3.60514C6.03343 3.59389 6.15204 3.60601 6.26488 3.64077C6.37772 3.67554 6.48257 3.73229 6.57339 3.80773C6.66422 3.88318 6.73923 3.97585 6.7941 4.0804C6.9072 4.2904 6.9309 4.537 6.8598 4.7647C6.82517 4.87804 6.76848 4.98343 6.69301 5.07481C6.61754 5.1662 6.52476 5.24177 6.42 5.2972L0.6 8.3764ZM3.6 8.4004V7.4683L4.8 6.8335V8.4004C4.8 8.47996 4.76839 8.55627 4.71213 8.61253C4.65587 8.66879 4.57957 8.7004 4.5 8.7004H3.9C3.82044 8.7004 3.74413 8.66879 3.68787 8.61253C3.63161 8.55627 3.6 8.47996 3.6 8.4004ZM7.1574 17.5774C7.12782 17.6912 7.076 17.798 7.00493 17.8916C6.93386 17.9853 6.84495 18.0639 6.74333 18.123C6.64171 18.1821 6.52939 18.2205 6.41285 18.236C6.29631 18.2515 6.17787 18.2437 6.06434 18.2132C5.95082 18.1826 5.84446 18.1299 5.75142 18.0581C5.65837 17.9862 5.58048 17.8966 5.52223 17.7945C5.46398 17.6924 5.42653 17.5798 5.41204 17.4631C5.39755 17.3464 5.4063 17.2281 5.4378 17.1148C5.50072 16.8885 5.65048 16.6963 5.85448 16.5799C6.05847 16.4636 6.30017 16.4325 6.52696 16.4935C6.75374 16.5545 6.94724 16.7027 7.06532 16.9057C7.1834 17.1087 7.21649 17.3501 7.1574 17.5774ZM15.2037 19.7404C15.1733 19.8533 15.1209 19.959 15.0496 20.0517C14.9784 20.1443 14.8895 20.222 14.7882 20.2803C14.6869 20.3386 14.5751 20.3764 14.4591 20.3915C14.3432 20.4066 14.2255 20.3987 14.1126 20.3683C13.9997 20.3379 13.894 20.2855 13.8013 20.2142C13.7087 20.143 13.631 20.0541 13.5727 19.9528C13.5144 19.8515 13.4766 19.7397 13.4615 19.6237C13.4464 19.5078 13.4543 19.3901 13.4847 19.2772C13.5461 19.0492 13.6956 18.855 13.9002 18.7373C14.1048 18.6195 14.3478 18.5879 14.5758 18.6493C14.8038 18.7107 14.998 18.8602 15.1157 19.0648C15.2335 19.2694 15.2651 19.5124 15.2037 19.7404ZM17.3889 18.4765L16.8189 18.3235C16.742 18.3029 16.6601 18.3136 16.5912 18.3533C16.5222 18.3931 16.4719 18.4586 16.4513 18.5354C16.4306 18.6123 16.4413 18.6942 16.4811 18.7632C16.5208 18.8321 16.5863 18.8825 16.6632 18.9031L17.2356 19.057L17.1588 19.342C17.1173 19.496 17.0164 19.6273 16.8782 19.707C16.74 19.7866 16.5758 19.8081 16.4217 19.7668L15.8304 19.6078C15.854 19.264 15.7578 18.9227 15.5581 18.6419C15.3584 18.3611 15.0676 18.1582 14.7351 18.0677C14.4026 17.9772 14.049 18.0048 13.7346 18.1457C13.4201 18.2866 13.1642 18.5321 13.0104 18.8404L7.7853 17.4355C7.80626 17.0922 7.70773 16.7521 7.50645 16.4732C7.30517 16.1942 7.01355 15.9935 6.6811 15.9052C6.34865 15.8169 5.99587 15.8463 5.68267 15.9885C5.36946 16.1308 5.11515 16.377 4.9629 16.6855L4.9452 16.681C4.7912 16.6395 4.65998 16.5385 4.58033 16.4003C4.50069 16.2621 4.47913 16.098 4.5204 15.9439L4.9647 14.2939C5.04473 13.9931 5.20244 13.7186 5.42201 13.498C5.64158 13.2774 5.91529 13.1184 6.2157 13.0369C7.5918 12.6715 8.6676 12.4405 9.9726 12.7915L12.1998 13.3915C12.7511 13.5399 13.232 13.8788 13.557 14.3482L15.1347 16.6282C15.183 16.6972 15.2421 16.7578 15.3096 16.8082C16.2633 17.5141 17.19 18.0643 17.2233 18.0841C17.3562 18.1669 17.4225 18.3241 17.3889 18.4771V18.4765Z" fill="black"/>
<path d="M13.0701 14.6806C12.825 14.3266 12.4623 14.0708 12.0465 13.9588L9.81935 13.3588C8.65355 13.0456 7.69505 13.2529 6.36365 13.606C6.12965 13.6696 5.92129 13.8046 5.76755 13.9921C5.73574 14.0308 5.71413 14.0769 5.7047 14.1261C5.69527 14.1753 5.69832 14.2261 5.71356 14.2738C5.72881 14.3215 5.75576 14.3647 5.79197 14.3993C5.82818 14.4339 5.87249 14.459 5.92085 14.4721L9.57845 15.4558L13.74 16.5763C13.7994 16.5922 13.8622 16.5896 13.92 16.5687C13.9778 16.5478 14.0278 16.5097 14.0632 16.4594C14.0986 16.4092 14.1178 16.3493 14.118 16.2878C14.1183 16.2264 14.0996 16.1663 14.0646 16.1158L13.0701 14.6806ZM9.44495 14.8006L6.84695 14.1001C7.91645 13.8265 8.73365 13.6882 9.66365 13.9384L9.67565 13.9417L9.44495 14.8006ZM10.0245 14.9563L10.2552 14.0992L11.8908 14.539C12.1695 14.614 12.4128 14.7853 12.5769 15.0226L13.1049 15.7846L10.0245 14.9563ZM10.8627 16.4137L9.71315 16.1047C9.67491 16.0938 9.63488 16.0906 9.5954 16.0953C9.55592 16.1 9.51777 16.1125 9.48316 16.1321C9.44856 16.1517 9.4182 16.178 9.39384 16.2094C9.36948 16.2408 9.35161 16.2768 9.34127 16.3152C9.33093 16.3536 9.32833 16.3936 9.33361 16.4331C9.3389 16.4725 9.35196 16.5104 9.37205 16.5447C9.39213 16.5791 9.41884 16.609 9.45062 16.6329C9.4824 16.6568 9.51861 16.6742 9.55715 16.684L10.7067 16.9933C10.7836 17.014 10.8655 17.0033 10.9345 16.9635C11.0035 16.9238 11.0539 16.8583 11.0745 16.7815C11.0952 16.7046 11.0845 16.6227 11.0448 16.5537C11.0051 16.4847 10.9396 16.4344 10.8627 16.4137Z" fill="black"/>
</g>
<path d="M34.384 6.88V8.368H31.424V18H29.6V8.368H26.624V6.88H34.384ZM38.0553 10.464C38.3219 10.016 38.6739 9.66933 39.1113 9.424C39.5593 9.168 40.0873 9.04 40.6953 9.04V10.928H40.2313C39.5166 10.928 38.9726 11.1093 38.5993 11.472C38.2366 11.8347 38.0553 12.464 38.0553 13.36V18H36.2313V9.184H38.0553V10.464ZM50.3559 9.184V18H48.5319V16.96C48.2439 17.3227 47.8652 17.6107 47.3959 17.824C46.9372 18.0267 46.4465 18.128 45.9239 18.128C45.2305 18.128 44.6065 17.984 44.0519 17.696C43.5079 17.408 43.0759 16.9813 42.7559 16.416C42.4465 15.8507 42.2919 15.168 42.2919 14.368V9.184H44.0999V14.096C44.0999 14.8853 44.2972 15.4933 44.6919 15.92C45.0865 16.336 45.6252 16.544 46.3079 16.544C46.9905 16.544 47.5292 16.336 47.9239 15.92C48.3292 15.4933 48.5319 14.8853 48.5319 14.096V9.184H50.3559ZM52.1545 13.584C52.1545 12.6773 52.3358 11.8827 52.6985 11.2C53.0718 10.5067 53.5838 9.97333 54.2345 9.6C54.8852 9.22667 55.6318 9.04 56.4745 9.04C57.5412 9.04 58.4212 9.296 59.1145 9.808C59.8185 10.3093 60.2932 11.0293 60.5385 11.968H58.5705C58.4105 11.5307 58.1545 11.1893 57.8025 10.944C57.4505 10.6987 57.0078 10.576 56.4745 10.576C55.7278 10.576 55.1305 10.8427 54.6825 11.376C54.2452 11.8987 54.0265 12.6347 54.0265 13.584C54.0265 14.5333 54.2452 15.2747 54.6825 15.808C55.1305 16.3413 55.7278 16.608 56.4745 16.608C57.5305 16.608 58.2292 16.144 58.5705 15.216H60.5385C60.2825 16.112 59.8025 16.8267 59.0985 17.36C58.3945 17.8827 57.5198 18.144 56.4745 18.144C55.6318 18.144 54.8852 17.9573 54.2345 17.584C53.5838 17.2 53.0718 16.6667 52.6985 15.984C52.3358 15.2907 52.1545 14.4907 52.1545 13.584ZM65.8443 13.6L69.9083 18H67.4443L64.1803 14.208V18H62.3563V6.16H64.1803V13.04L67.3803 9.184H69.9083L65.8443 13.6ZM74.4156 18.144C73.7223 18.144 73.0983 18.0213 72.5436 17.776C71.9996 17.52 71.5676 17.1787 71.2476 16.752C70.9276 16.3147 70.757 15.8293 70.7356 15.296H72.6236C72.6556 15.6693 72.8316 15.984 73.1516 16.24C73.4823 16.4853 73.893 16.608 74.3836 16.608C74.8956 16.608 75.2903 16.512 75.5676 16.32C75.8556 16.1173 75.9996 15.8613 75.9996 15.552C75.9996 15.2213 75.8396 14.976 75.5196 14.816C75.2103 14.656 74.7143 14.48 74.0316 14.288C73.3703 14.1067 72.8316 13.9307 72.4156 13.76C71.9996 13.5893 71.637 13.328 71.3276 12.976C71.029 12.624 70.8796 12.16 70.8796 11.584C70.8796 11.1147 71.0183 10.688 71.2956 10.304C71.573 9.90933 71.9676 9.6 72.4796 9.376C73.0023 9.152 73.5996 9.04 74.2716 9.04C75.2743 9.04 76.0796 9.296 76.6876 9.808C77.3063 10.3093 77.637 10.9973 77.6796 11.872H75.8556C75.8236 11.4773 75.6636 11.1627 75.3756 10.928C75.0876 10.6933 74.6983 10.576 74.2076 10.576C73.7276 10.576 73.3596 10.6667 73.1036 10.848C72.8476 11.0293 72.7196 11.2693 72.7196 11.568C72.7196 11.8027 72.805 12 72.9756 12.16C73.1463 12.32 73.3543 12.448 73.5996 12.544C73.845 12.6293 74.2076 12.7413 74.6876 12.88C75.3276 13.0507 75.8503 13.2267 76.2556 13.408C76.6716 13.5787 77.029 13.8347 77.3276 14.176C77.6263 14.5173 77.781 14.9707 77.7916 15.536C77.7916 16.0373 77.653 16.4853 77.3756 16.88C77.0983 17.2747 76.7036 17.584 76.1916 17.808C75.6903 18.032 75.0983 18.144 74.4156 18.144Z" fill="#353535"/>
<defs>
<clipPath id="clip0_16539_147">
<rect width="18" height="18" fill="white" transform="translate(0 3)"/>
</clipPath>
</defs>
</svg>
