<svg width="18" height="18" viewBox="0 0 18 18" fill="none" xmlns="http://www.w3.org/2000/svg">
<path d="M9.09004 9.58486C9.03754 9.57736 8.97004 9.57736 8.91004 9.58486C7.59004 9.53986 6.54004 8.45986 6.54004 7.13236C6.54004 5.77486 7.63504 4.67236 9.00004 4.67236C10.3575 4.67236 11.46 5.77486 11.46 7.13236C11.4525 8.45986 10.41 9.53986 9.09004 9.58486Z" stroke="#292D32" stroke-linecap="round" stroke-linejoin="round"/>
<path d="M14.0549 14.5349C12.7199 15.7574 10.9499 16.4999 8.99995 16.4999C7.04995 16.4999 5.27995 15.7574 3.94495 14.5349C4.01995 13.8299 4.46995 13.1399 5.27245 12.5999C7.32745 11.2349 10.6874 11.2349 12.7274 12.5999C13.5299 13.1399 13.9799 13.8299 14.0549 14.5349Z" stroke="#292D32" stroke-linecap="round" stroke-linejoin="round"/>
<path d="M9 16.5C13.1421 16.5 16.5 13.1421 16.5 9C16.5 4.85786 13.1421 1.5 9 1.5C4.85786 1.5 1.5 4.85786 1.5 9C1.5 13.1421 4.85786 16.5 9 16.5Z" stroke="#292D32" stroke-linecap="round" stroke-linejoin="round"/>
</svg>
