<svg width="30" height="30" viewBox="0 0 30 30" fill="none" xmlns="http://www.w3.org/2000/svg">
<rect width="30" height="30" rx="5" fill="#F3F8EB"/>
<path d="M15.09 15.5849C15.0375 15.5774 14.97 15.5774 14.91 15.5849C13.59 15.5399 12.54 14.4599 12.54 13.1324C12.54 11.7749 13.635 10.6724 15 10.6724C16.3575 10.6724 17.46 11.7749 17.46 13.1324C17.4525 14.4599 16.41 15.5399 15.09 15.5849Z" stroke="#9AC258" stroke-linecap="round" stroke-linejoin="round"/>
<path d="M20.055 20.5349C18.72 21.7574 16.95 22.4999 15 22.4999C13.05 22.4999 11.28 21.7574 9.94501 20.5349C10.02 19.8299 10.47 19.1399 11.2725 18.5999C13.3275 17.2349 16.6875 17.2349 18.7275 18.5999C19.53 19.1399 19.98 19.8299 20.055 20.5349Z" stroke="#9AC258" stroke-linecap="round" stroke-linejoin="round"/>
<path d="M15 22.5C19.1421 22.5 22.5 19.1421 22.5 15C22.5 10.8579 19.1421 7.5 15 7.5C10.8579 7.5 7.5 10.8579 7.5 15C7.5 19.1421 10.8579 22.5 15 22.5Z" stroke="#9AC258" stroke-linecap="round" stroke-linejoin="round"/>
</svg>
