<svg width="24" height="24" viewBox="0 0 24 24" fill="none" xmlns="http://www.w3.org/2000/svg">
<path d="M10.0005 23.9999C11.8116 23.9999 13.3266 22.7089 13.6745 20.9999H6.32648C6.67458 22.7089 8.18958 23.9999 10.0005 23.9999ZM17.0125 11.999C17.0085 11.999 17.0045 11.9999 17.0004 11.9999C13.1415 11.9999 10.0005 8.85987 10.0005 5C10.0005 3.93889 10.2446 2.93586 10.6695 2.03389C10.4495 2.01298 10.2264 2 10.0005 2C6.13458 2 3.00056 5.13383 3.00056 8.99994V11.7879C3.00056 13.7669 2.13356 15.635 0.612467 16.9209C0.105467 17.354 -0.119533 18.0439 0.0624357 18.717C0.274451 19.4999 1.04845 20 1.86056 20H18.1355C18.9874 20 19.7905 19.448 19.9634 18.613C20.0975 17.967 19.8675 17.3219 19.3665 16.901C17.9124 15.682 17.0715 13.8909 17.0125 11.999Z" fill="#FBA81A"/>
<path d="M22.0005 5.00006C22.0005 7.76147 19.762 9.99994 17.0004 9.99994C14.239 9.99994 12.0005 7.76147 12.0005 5.00006C12.0005 2.23866 14.239 0 17.0004 0C19.762 0 22.0005 2.23866 22.0005 5.00006Z" fill="#ED1B24"/>
</svg>
