<svg width="18" height="18" viewBox="0 0 18 18" fill="none" xmlns="http://www.w3.org/2000/svg">
<path d="M15.0301 5.11477L10.7101 2.09227C9.53255 1.26727 7.72505 1.31227 6.59255 2.18977L2.83505 5.12227C2.08505 5.70727 1.49255 6.90727 1.49255 7.85227V13.0273C1.49255 14.9398 3.04505 16.4998 4.95755 16.4998H13.0426C14.9551 16.4998 16.5076 14.9473 16.5076 13.0348V7.94977C16.5076 6.93727 15.8551 5.69227 15.0301 5.11477ZM9.56255 13.4998C9.56255 13.8073 9.30755 14.0623 9.00005 14.0623C8.69255 14.0623 8.43755 13.8073 8.43755 13.4998V11.2498C8.43755 10.9423 8.69255 10.6873 9.00005 10.6873C9.30755 10.6873 9.56255 10.9423 9.56255 11.2498V13.4998Z" fill="#FBA81A"/>
</svg>
