<svg width="30" height="30" viewBox="0 0 30 30" fill="none" xmlns="http://www.w3.org/2000/svg">
<rect width="30" height="30" rx="5" fill="#FFF7F7"/>
<path d="M12.2266 16.9417C12.2266 18.0167 13.0516 18.8834 14.0766 18.8834H16.1682C17.0599 18.8834 17.7849 18.125 17.7849 17.1917C17.7849 16.175 17.3432 15.8167 16.6849 15.5834L13.3266 14.4167C12.6682 14.1834 12.2266 13.825 12.2266 12.8084C12.2266 11.875 12.9516 11.1167 13.8432 11.1167H15.9349C16.9599 11.1167 17.7849 11.9834 17.7849 13.0584" stroke="#FFADAD" stroke-linecap="round" stroke-linejoin="round"/>
<path d="M15 10V20" stroke="#FFADAD" stroke-linecap="round" stroke-linejoin="round"/>
<path d="M15 23.3332C19.6024 23.3332 23.3334 19.6022 23.3334 14.9998C23.3334 10.3975 19.6024 6.6665 15 6.6665C10.3976 6.6665 6.66669 10.3975 6.66669 14.9998C6.66669 19.6022 10.3976 23.3332 15 23.3332Z" stroke="#FFADAD" stroke-linecap="round" stroke-linejoin="round"/>
</svg>