<svg width="18" height="18" viewBox="0 0 18 18" fill="none" xmlns="http://www.w3.org/2000/svg">
<g clip-path="url(#clip0_16539_370)">
<path d="M6.88032 9.42395L5.82563 4.15048C5.80173 4.03094 5.73714 3.92337 5.64287 3.84609C5.5486 3.7688 5.43046 3.72656 5.30855 3.72656H4.25386C4.13196 3.72656 4.01382 3.7688 3.91954 3.84609C3.82527 3.92337 3.76069 4.03094 3.73679 4.15048L2.6821 9.42391C2.62497 9.70952 2.81021 9.98733 3.09578 10.0444C3.38136 10.1016 3.6592 9.91631 3.71629 9.63074L4.05337 7.94531H5.50905L5.84613 9.63077C5.90325 9.91649 6.1812 10.1016 6.46663 10.0445C6.75221 9.98733 6.93745 9.70952 6.88032 9.42395ZM4.2643 6.89062L4.68618 4.78125H4.87623L5.29811 6.89062H4.2643ZM15.3281 7.94531H13.7461V7.41797C13.7461 7.12673 13.5099 6.89062 13.2187 6.89062C12.9275 6.89062 12.6914 7.12673 12.6914 7.41797V7.94531H11.1093C10.8181 7.94531 10.582 8.18142 10.582 8.47266C10.582 8.76389 10.8181 9 11.1093 9H11.2369C11.5374 9.97073 11.9898 10.7158 12.4876 11.3129C12.0825 11.6835 11.6725 11.9875 11.3073 12.2796C11.0798 12.4616 11.043 12.7934 11.2249 13.0208C11.407 13.2484 11.7388 13.285 11.9661 13.1032C12.3334 12.8094 12.7736 12.4829 13.2187 12.0743C13.6642 12.4831 14.1052 12.8102 14.4713 13.1032C14.6987 13.2851 15.0306 13.2482 15.2125 13.0208C15.3944 12.7934 15.3575 12.4615 15.1302 12.2796C14.7659 11.9881 14.3554 11.6839 13.9498 11.3129C14.4476 10.7158 14.9 9.97073 15.2005 9H15.3281C15.6193 9 15.8554 8.76389 15.8554 8.47266C15.8554 8.18142 15.6193 7.94531 15.3281 7.94531ZM13.2187 10.5379C12.8821 10.1153 12.5792 9.61095 12.3509 8.99648H14.0864C13.8582 9.61095 13.5553 10.1153 13.2187 10.5379Z" fill="#353535"/>
<path d="M16.418 3.19922H8.81012L8.58407 1.38579C8.48531 0.595758 7.81045 0 7.01427 0H1.58203C0.709699 0 0 0.709699 0 1.58203V13.2188C0 14.0911 0.709699 14.8008 1.58203 14.8008H6.0287L6.25187 16.6142C6.35045 17.4027 7.02531 18 7.8217 18H16.418C17.2903 18 18 17.2903 18 16.418V4.78125C18 3.90892 17.2903 3.19922 16.418 3.19922ZM1.58203 13.7461C1.29125 13.7461 1.05469 13.5095 1.05469 13.2188V1.58203C1.05469 1.29125 1.29125 1.05469 1.58203 1.05469H7.01427C7.27966 1.05469 7.50463 1.25325 7.5375 1.51643L9.06202 13.7461H1.58203ZM7.26764 16.2334L7.09133 14.8008H8.50616L7.26764 16.2334ZM16.9453 16.418C16.9453 16.7087 16.7087 16.9453 16.418 16.9453H8.04635L10.0539 14.6231C10.1045 14.5661 10.1421 14.4988 10.1642 14.4258C10.1862 14.3528 10.1921 14.2759 10.1815 14.2004L8.94161 4.25391H16.418C16.7087 4.25391 16.9453 4.49047 16.9453 4.78125V16.418Z" fill="#353535"/>
</g>
<defs>
<clipPath id="clip0_16539_370">
<rect width="18" height="18" fill="white"/>
</clipPath>
</defs>
</svg>
