<svg width="18" height="18" viewBox="0 0 18 18" fill="none" xmlns="http://www.w3.org/2000/svg">
<g clip-path="url(#clip0_16539_148)">
<path d="M6.37528 14.0586C6.29906 14.0381 6.21781 14.0486 6.14939 14.088C6.08098 14.1274 6.03101 14.1924 6.01048 14.2686C5.98996 14.3448 6.00055 14.4261 6.03993 14.4945C6.07931 14.5629 6.14426 14.6129 6.22049 14.6334C6.29671 14.6539 6.37796 14.6433 6.44638 14.6039C6.51479 14.5645 6.56476 14.4996 6.58528 14.4234C6.60581 14.3472 6.59522 14.2659 6.55584 14.1975C6.51645 14.1291 6.45151 14.0791 6.37528 14.0586ZM14.4213 16.2225C14.3835 16.2123 14.3442 16.2097 14.3054 16.2147C14.2667 16.2198 14.2293 16.2324 14.1954 16.2519C14.1615 16.2714 14.1318 16.2974 14.108 16.3284C14.0841 16.3594 14.0666 16.3947 14.0565 16.4325C14.0463 16.4702 14.0437 16.5096 14.0487 16.5484C14.0538 16.5871 14.0664 16.6245 14.0859 16.6584C14.1054 16.6922 14.1314 16.7219 14.1624 16.7458C14.1934 16.7696 14.2287 16.7871 14.2665 16.7973C14.3427 16.8178 14.424 16.8072 14.4924 16.7678C14.5608 16.7285 14.6108 16.6635 14.6313 16.5873C14.6518 16.5111 14.6412 16.4298 14.6018 16.3614C14.5625 16.293 14.4975 16.243 14.4213 16.2225Z" fill="black"/>
<path d="M17.5347 14.5693C16.8938 14.1828 16.2708 13.7675 15.6675 13.3246C15.6522 13.3132 15.6388 13.2995 15.6279 13.2838L14.0505 11.0038C13.6444 10.4183 13.044 9.99547 12.3558 9.8104L10.1286 9.2104C8.6817 8.8204 7.4814 9.079 6.0615 9.4555C5.71595 9.54903 5.39607 9.71962 5.12589 9.95447C4.8557 10.1893 4.64223 10.4823 4.5015 10.8115V9.2575C4.75802 9.19092 4.98527 9.04129 5.14781 8.83197C5.31035 8.62265 5.39903 8.36541 5.4 8.1004C5.4 8.02083 5.36839 7.94453 5.31213 7.88827C5.25587 7.83201 5.17956 7.8004 5.1 7.8004C5.02044 7.8004 4.94413 7.83201 4.88787 7.88827C4.83161 7.94453 4.8 8.02083 4.8 8.1004C4.8 8.21907 4.76481 8.33507 4.69888 8.43374C4.63295 8.53241 4.53925 8.60931 4.42961 8.65473C4.31997 8.70014 4.19933 8.71202 4.08295 8.68887C3.96656 8.66572 3.85965 8.60857 3.77574 8.52466C3.69182 8.44075 3.63468 8.33384 3.61153 8.21745C3.58838 8.10106 3.60026 7.98042 3.64567 7.87079C3.69108 7.76115 3.76799 7.66745 3.86666 7.60152C3.96533 7.53559 4.08133 7.5004 4.2 7.5004C4.27957 7.5004 4.35587 7.46879 4.41213 7.41253C4.46839 7.35627 4.5 7.27996 4.5 7.2004V6.3004C4.7387 6.3004 4.96761 6.20558 5.1364 6.0368C5.30518 5.86801 5.4 5.63909 5.4 5.4004V3.5161L6.7023 2.8261C7.05327 2.63921 7.31583 2.32079 7.4324 1.94064C7.54898 1.56048 7.51007 1.14961 7.3242 0.798099C7.23222 0.624082 7.10681 0.469922 6.95516 0.344447C6.80351 0.218972 6.62859 0.124648 6.44043 0.066879C6.25227 0.00910951 6.05456 -0.0109708 5.85862 0.00778812C5.66269 0.0265471 5.47238 0.0837767 5.2986 0.176199L0.1596 2.8972C0.066 2.9539 0.00630001 3.0532 1.10643e-08 3.1624V5.8744C-1.40386e-05 5.92614 0.0133526 5.977 0.0388017 6.02205C0.0642508 6.06709 0.100917 6.10479 0.14524 6.13148C0.189562 6.15817 0.240033 6.17295 0.291752 6.17437C0.34347 6.17579 0.394678 6.16381 0.4404 6.1396L3 4.7857V5.4004C3 5.63909 3.09482 5.86801 3.2636 6.0368C3.43239 6.20558 3.66131 6.3004 3.9 6.3004V6.943C3.64272 7.00848 3.4146 7.15782 3.25167 7.36741C3.08873 7.57701 3.00028 7.83492 3.00028 8.1004C3.00028 8.36588 3.08873 8.62379 3.25167 8.83339C3.4146 9.04298 3.64272 9.19232 3.9 9.2578V13.0978C3.9 13.108 3.9048 13.1164 3.9057 13.1278C3.91094 13.3868 3.99985 13.6372 4.15915 13.8414C4.31845 14.0457 4.53958 14.193 4.7895 14.2612L4.8108 14.2669C4.79179 14.6077 4.89069 14.9447 5.09086 15.2212C5.29103 15.4977 5.58029 15.6968 5.91 15.7852C6.03717 15.8195 6.16829 15.8369 6.3 15.8371C6.57586 15.8365 6.84613 15.7593 7.08072 15.6142C7.31532 15.4691 7.50502 15.2617 7.6287 15.0151L12.8562 16.4206C12.8379 16.7116 12.9061 17.0016 13.0521 17.254C13.0839 17.305 13.119 17.3539 13.1568 17.4004L3.6 17.3986C3.52044 17.3986 3.44413 17.4302 3.38787 17.4865C3.33161 17.5427 3.3 17.619 3.3 17.6986C3.3 17.7782 3.33161 17.8545 3.38787 17.9107C3.44413 17.967 3.52044 17.9986 3.6 17.9986L14.3463 18.0004C14.6064 17.9977 14.8616 17.9291 15.0879 17.8009C15.3377 17.6571 15.5401 17.4434 15.6702 17.1862L16.2666 17.3464C16.419 17.3876 16.578 17.3983 16.7345 17.3779C16.8911 17.3576 17.0421 17.3065 17.1788 17.2277C17.3156 17.1489 17.4355 17.0439 17.5316 16.9187C17.6277 16.7935 17.6982 16.6505 17.739 16.498L17.9661 15.6532C18.0214 15.4502 18.0092 15.2347 17.9314 15.0392C17.8536 14.8437 17.7144 14.6788 17.5347 14.5693ZM0.6 5.3764V3.343L5.58 0.706299C5.6842 0.650765 5.79836 0.616386 5.91589 0.60514C6.03343 0.593895 6.15204 0.606005 6.26488 0.640775C6.37772 0.675544 6.48257 0.732286 6.57339 0.807735C6.66422 0.883183 6.73923 0.975849 6.7941 1.0804C6.9072 1.2904 6.9309 1.537 6.8598 1.7647C6.82517 1.87804 6.76848 1.98343 6.69301 2.07481C6.61754 2.1662 6.52476 2.24177 6.42 2.2972L0.6 5.3764ZM3.6 5.4004V4.4683L4.8 3.8335V5.4004C4.8 5.47996 4.76839 5.55627 4.71213 5.61253C4.65587 5.66879 4.57957 5.7004 4.5 5.7004H3.9C3.82044 5.7004 3.74413 5.66879 3.68787 5.61253C3.63161 5.55627 3.6 5.47996 3.6 5.4004ZM7.1574 14.5774C7.12782 14.6912 7.076 14.798 7.00493 14.8916C6.93386 14.9853 6.84495 15.0639 6.74333 15.123C6.64171 15.1821 6.52939 15.2205 6.41285 15.236C6.29631 15.2515 6.17787 15.2437 6.06434 15.2132C5.95082 15.1826 5.84446 15.1299 5.75142 15.0581C5.65837 14.9862 5.58048 14.8966 5.52223 14.7945C5.46398 14.6924 5.42653 14.5798 5.41204 14.4631C5.39755 14.3464 5.4063 14.2281 5.4378 14.1148C5.50072 13.8885 5.65048 13.6963 5.85448 13.5799C6.05847 13.4636 6.30017 13.4325 6.52696 13.4935C6.75374 13.5545 6.94724 13.7027 7.06532 13.9057C7.1834 14.1087 7.21649 14.3501 7.1574 14.5774ZM15.2037 16.7404C15.1733 16.8533 15.1209 16.959 15.0496 17.0517C14.9784 17.1443 14.8895 17.222 14.7882 17.2803C14.6869 17.3386 14.5751 17.3764 14.4591 17.3915C14.3432 17.4066 14.2255 17.3987 14.1126 17.3683C13.9997 17.3379 13.894 17.2855 13.8013 17.2142C13.7087 17.143 13.631 17.0541 13.5727 16.9528C13.5144 16.8515 13.4766 16.7397 13.4615 16.6237C13.4464 16.5078 13.4543 16.3901 13.4847 16.2772C13.5461 16.0492 13.6956 15.855 13.9002 15.7373C14.1048 15.6195 14.3478 15.5879 14.5758 15.6493C14.8038 15.7107 14.998 15.8602 15.1157 16.0648C15.2335 16.2694 15.2651 16.5124 15.2037 16.7404ZM17.3889 15.4765L16.8189 15.3235C16.742 15.3029 16.6601 15.3136 16.5912 15.3533C16.5222 15.3931 16.4719 15.4586 16.4513 15.5354C16.4306 15.6123 16.4413 15.6942 16.4811 15.7632C16.5208 15.8321 16.5863 15.8825 16.6632 15.9031L17.2356 16.057L17.1588 16.342C17.1173 16.496 17.0164 16.6273 16.8782 16.707C16.74 16.7866 16.5758 16.8081 16.4217 16.7668L15.8304 16.6078C15.854 16.264 15.7578 15.9227 15.5581 15.6419C15.3584 15.3611 15.0676 15.1582 14.7351 15.0677C14.4026 14.9772 14.049 15.0048 13.7346 15.1457C13.4201 15.2866 13.1642 15.5321 13.0104 15.8404L7.7853 14.4355C7.80626 14.0922 7.70773 13.7521 7.50645 13.4732C7.30517 13.1942 7.01355 12.9935 6.6811 12.9052C6.34865 12.8169 5.99587 12.8463 5.68267 12.9885C5.36946 13.1308 5.11515 13.377 4.9629 13.6855L4.9452 13.681C4.7912 13.6395 4.65998 13.5385 4.58033 13.4003C4.50069 13.2621 4.47913 13.098 4.5204 12.9439L4.9647 11.2939C5.04473 10.9931 5.20244 10.7186 5.42201 10.498C5.64158 10.2774 5.91529 10.1184 6.2157 10.0369C7.5918 9.6715 8.6676 9.4405 9.9726 9.7915L12.1998 10.3915C12.7511 10.5399 13.232 10.8788 13.557 11.3482L15.1347 13.6282C15.183 13.6972 15.2421 13.7578 15.3096 13.8082C16.2633 14.5141 17.19 15.0643 17.2233 15.0841C17.3562 15.1669 17.4225 15.3241 17.3889 15.4771V15.4765Z" fill="black"/>
<path d="M13.0701 11.6806C12.825 11.3266 12.4623 11.0708 12.0465 10.9588L9.81935 10.3588C8.65355 10.0456 7.69505 10.2529 6.36365 10.606C6.12965 10.6696 5.92129 10.8046 5.76755 10.9921C5.73574 11.0308 5.71413 11.0769 5.7047 11.1261C5.69527 11.1753 5.69832 11.2261 5.71356 11.2738C5.72881 11.3215 5.75576 11.3647 5.79197 11.3993C5.82818 11.4339 5.87249 11.459 5.92085 11.4721L9.57845 12.4558L13.74 13.5763C13.7994 13.5922 13.8622 13.5896 13.92 13.5687C13.9778 13.5478 14.0278 13.5097 14.0632 13.4594C14.0986 13.4092 14.1178 13.3493 14.118 13.2878C14.1183 13.2264 14.0996 13.1663 14.0646 13.1158L13.0701 11.6806ZM9.44495 11.8006L6.84695 11.1001C7.91645 10.8265 8.73365 10.6882 9.66365 10.9384L9.67565 10.9417L9.44495 11.8006ZM10.0245 11.9563L10.2552 11.0992L11.8908 11.539C12.1695 11.614 12.4128 11.7853 12.5769 12.0226L13.1049 12.7846L10.0245 11.9563ZM10.8627 13.4137L9.71315 13.1047C9.67491 13.0938 9.63488 13.0906 9.5954 13.0953C9.55592 13.1 9.51777 13.1125 9.48316 13.1321C9.44856 13.1517 9.4182 13.178 9.39384 13.2094C9.36948 13.2408 9.35161 13.2768 9.34127 13.3152C9.33093 13.3536 9.32833 13.3936 9.33361 13.4331C9.3389 13.4725 9.35196 13.5104 9.37205 13.5447C9.39213 13.5791 9.41884 13.609 9.45062 13.6329C9.4824 13.6568 9.51861 13.6742 9.55715 13.684L10.7067 13.9933C10.7836 14.014 10.8655 14.0033 10.9345 13.9635C11.0035 13.9238 11.0539 13.8583 11.0745 13.7815C11.0952 13.7046 11.0845 13.6227 11.0448 13.5537C11.0051 13.4847 10.9396 13.4344 10.8627 13.4137Z" fill="black"/>
</g>
<defs>
<clipPath id="clip0_16539_148">
<rect width="18" height="18" fill="white"/>
</clipPath>
</defs>
</svg>
